<svg xmlns="http://www.w3.org/2000/svg" viewBox="0 0 64 64">
  <g fill="#5CC6D0">
    <!-- Nose cone -->
    <path d="M32,3 C34,3 39,12 39,20 L25,20 C25,12 30,3 32,3 Z"/>
    <!-- Body -->
    <rect x="25" y="20" width="14" height="28" rx="1.5"/>
    <!-- Porthole -->
    <circle cx="32" cy="30" r="5" fill="white" opacity="0.85"/>
    <circle cx="32" cy="30" r="3" fill="#5CC6D0" opacity="0.45"/>
    <!-- Left fin -->
    <path d="M25,38 L14,52 L14,46 L25,34 Z" opacity="0.8"/>
    <!-- Right fin -->
    <path d="M39,38 L50,52 L50,46 L39,34 Z" opacity="0.8"/>
    <!-- Nozzle -->
    <path d="M27,48 L23,56 L41,56 L37,48 Z" opacity="0.7"/>
    <!-- Flame -->
    <path d="M27,56 L32,64 L37,56" fill="#4BB5C0" opacity="0.65"/>
    <path d="M29,56 L32,62 L35,56" fill="#5CC6D0" opacity="0.4"/>
  </g>
</svg>
